# AST/ASF file generated using VICON BodyLanguage
# -----------------------------------------------
:version 1.10
:name VICON
:units
  mass 1.0
  length 0.45
  angle deg
:documentation
   .ast/.asf automatically generated from VICON data using
   VICON BodyBuilder and BodyLanguage model FoxedUp or BRILLIANT.MOD
:root
   order TX TY TZ RX RY RZ
   axis XYZ
   position 0 0 0  
   orientation 0 0 0 
:bonedata
  begin
     id 1 
     name lhipjoint
     direction 0.611804 -0.747784 0.257906 
     length 2.29243 
     axis 0 0 0  XYZ
  end
  begin
     id 2 
     name lfemur
     direction 0.34202 -0.939693 0  
     length 7.31159  
     axis 0 0 20  XYZ
    dof rx ry rz
    limits (-160.0 20.0)
           (-70.0 70.0)
           (-60.0 70.0)
  end
  begin
     id 3 
     name ltibia
     direction 0.34202 -0.939693 0   
     length 7.33391   
     axis 0 0 20   XYZ
    dof rx
    limits (-10.0 170.0)
  end
  begin
     id 4 
     name lfoot
     direction 0.122263 -0.335914 0.933924   
     length 1.76083   
     axis -90 7.62852e-016 20   XYZ
    dof rx rz
    limits (-45.0 90.0)
           (-70.0 20.0)
  end
  begin
     id 5 
     name ltoes
     direction 1.53533e-011 -4.2177e-011 1   
     length 0.879206   
     axis -90 7.62852e-016 20   XYZ
    dof rx
    limits (-90.0 20.0)
  end
  begin
     id 6 
     name rhipjoint
     direction -0.646469 -0.721248 0.248754   
     length 2.37677  
     axis 0 0 0  XYZ 
  end
  begin
     id 7 
     name rfemur
     direction -0.34202 -0.939693 0   
     length 7.18623   
     axis 0 0 -20   XYZ
    dof rx ry rz
    limits (-160.0 20.0)
           (-70.0 70.0)
           (-70.0 60.0)
  end
  begin
     id 8 
     name rtibia
     direction -0.34202 -0.939693 0   
     length 7.36567   
     axis 0 0 -20   XYZ
    dof rx
    limits (-10.0 170.0)
 end
 begin
     id 9 
     name rfoot
     direction -0.126681 -0.348054 0.928876   
     length 1.71902  
     axis -90 -7.62852e-016 -20   XYZ
    dof rx rz
    limits (-45.0 90.0)
           (-20.0 70.0)
  end
  begin
     id 10 
     name rtoes
     direction -1.53551e-011 -4.21898e-011 1   
     length 0.857792   
     axis -90 -7.62852e-016 -20   XYZ
    dof rx
    limits (-90.0 20.0)
  end
  begin
     id 11 
     name lowerback
     direction 0.0106509 0.999778 0.0181844   
     length 2.07668   
     axis 0 0 0   XYZ
    dof rx ry rz
    limits (-20.0 45.0)
           (-30.0 30.0)
           (-30.0 30.0)
  end
  begin
     id 12 
     name upperback
     direction -0.00456018 0.999989 -0.000590935   
     length 2.08011   
     axis 0 0 0   XYZ
    dof rx ry rz
    limits (-20.0 45.0)
           (-30.0 30.0)
           (-30.0 30.0)
  end
  begin
     id 13 
     name thorax
     direction -0.00910382 0.999916 -0.00923765   
     length 2.07397   
     axis 0 0 0   XYZ
    dof rx ry rz
    limits (-20.0 45.0)
           (-30.0 30.0)
           (-30.0 30.0)
  end
  begin
     id 14 
     name lowerneck
     direction 0.00171967 0.99778 0.0665733   
     length 1.67556   
     axis 0 0 0   XYZ
    dof rx ry rz
    limits (-20.0 45.0)
           (-30.0 30.0)
           (-30.0 30.0)
  end
  begin
     id 15 
     name upperneck
     direction -0.0143166 0.991302 -0.130828   
     length 1.68462   
     axis 0 0 0   XYZ
    dof rx ry rz
    limits (-20.0 45.0)
           (-30.0 30.0)
           (-30.0 30.0)
  end
  begin
     id 16
     name head
     direction -0.00606378 0.998665 -0.0512995  
     length 1.69269  
     axis 0 0 0   XYZ
    dof rx ry rz
    limits (-20.0 45.0)
           (-30.0 30.0)
           (-30.0 30.0)
  end
  begin
     id 17 
     name lclavicle
     direction 0.9638 0.179341 0.197297  
     length 4.12888  
     axis 0 0 0   XYZ
    dof ry rz
    limits (-20.0 10.0)
           (0.0 20.0)
  end
  begin
     id 18 
     name lhumerus
     direction 1 -4.48972e-011 -2.47351e-027   
     length 5.01834   
     axis -180 -30 -90   XYZ
    dof rx ry rz
    limits (-60.0 90.0)
           (-90.0 90.0)
           (-90.0 90.0)
  end
  begin
     id 19
     name lradius
     direction 1 -4.48965e-011 1.51591e-026   
     length 3.4869   
     axis -180 -30 -90   XYZ
    dof rx
    limits (-10.0 170.0)
  end
  begin
     id 20
     name lwrist
     direction 1 -4.48957e-011 2.70032e-026   
     length 1.74345   
     axis -1.81515e-014 90 90   XYZ
    dof ry
    limits (-180.0 0.0)
 end
  begin
     id 21 
     name lhand
     direction 1 -4.48951e-011 5.40064e-026   
     length 0.76799   
     axis -3.44607e-014 90 90   XYZ
    dof rx rz
    limits (-90.0 90.0)
           (-45.0 45.0)
  end
  begin
     id 22 
     name lfingers
     direction 1 -4.48971e-011 1.08013e-025   
     length 0.619174   
     axis -6.89214e-014 90 90   XYZ
    dof rx
    limits (0.0 90.0)
  end
  begin
     id 23
     name lthumb
     direction 0.707107 -6.34931e-011 0.707107   
     length 0.889013   
     axis -90 45 2.85299e-015   XYZ
    dof rx rz
    limits (-45.0 45.0)
           (-45.0 45.0)
  end
  begin
     id 24 
     name rclavicle
     direction -0.961409 0.252588 0.109054   
     length 4.04305  
     axis 0 0 0   XYZ 
    dof ry rz
    limits (-10.0 20.0)
           (-20.0 0.0)
  end
  begin
     id 25 
     name rhumerus
     direction -1 -4.4897e-011 1.33872e-017  
     length 4.70164   
     axis -180 30 90   XYZ
    dof rx ry rz
    limits (-90.0 60.0)
           (-90.0 90.0)
           (-90.0 90.0)
  end
  begin
     id 26 
     name rradius
     direction -1 -4.48954e-011 1.83844e-026   
     length 3.49911   
     axis -180 30 90   XYZ
    dof rx
    limits (-10.0 170.0)
  end
  begin
     id 27 
     name rwrist
     direction -1 -4.49008e-011 2.70032e-026   
     length 1.74955   
     axis -1.81515e-014 -90 -90   XYZ
    dof ry
    limits (-180.0 0.0)
  end
  begin
     id 28
     name rhand
     direction -1 -4.48916e-011 5.40064e-026   
     length 0.739335   
     axis -3.44607e-014 -90 -90   XYZ
    dof rx rz
    limits (-90.0 90.0)
           (-45.0 45.0)
  end
  begin
     id 29
     name rfingers
     direction -1 -4.48987e-011 1.08013e-025   
     length 0.596071   
     axis -6.89214e-014 -90 -90   XYZ
    dof rx
    limits (0.0 90.0)
  end
  begin
     id 30
     name rthumb
     direction -0.707107 -6.34935e-011 0.707107   
     length 0.855843   
     axis -90 -45 -2.85299e-015   XYZ
    dof rx rz
    limits (-45.0 45.0)
           (-45.0 45.0)
  end
:hierarchy
  begin
    root lhipjoint rhipjoint lowerback
    lhipjoint lfemur
    lfemur ltibia
    ltibia lfoot
    lfoot ltoes
    rhipjoint rfemur
    rfemur rtibia
    rtibia rfoot
    rfoot rtoes
    lowerback upperback
    upperback thorax
    thorax lowerneck lclavicle rclavicle
    lowerneck upperneck
    upperneck head
    lclavicle lhumerus
    lhumerus lradius
    lradius lwrist
    lwrist lhand lthumb
    lhand lfingers
    rclavicle rhumerus
    rhumerus rradius
    rradius rwrist
    rwrist rhand rthumb
    rhand rfingers
  end

#!OML:ASF I:\salsa\salsa 7_09\Patient 1\Session 1\dancermale.ASF
:FULLY-SPECIFIED
:DEGREES
725
root -0.71527 15.8028 -9.43399 186.549 174.806 180.355
lowerback -9.90782 11.5204 0.737896
upperback 1.11369 15.1313 2.20834
thorax 6.17784 7.42576 4.13219
lowerneck -12.4072 3.29468 -2.02093
upperneck 21.7157 6.07619 -3.73177
head 8.91416 2.36115 -0.230978
rclavicle -4.94228e-014 5.56597e-015
rhumerus -5.62753 11.6335 -97.9641
rradius 86.742
rwrist -14.9403
rhand -34.4734 -3.30801
rfingers 7.12502
rthumb -7.63652 -33.1501
lclavicle -4.94228e-014 5.56597e-015
lhumerus 48.9813 8.84572 42.8039
lradius 98.1085
lwrist 53.0705
lhand 4.81176 53.2707
lfingers 7.12502
lthumb 30.1904 80.8233
rfemur -31.4863 -3.38349 12.6151
rtibia 58.8099
rfoot -18.2528 -37.258
rtoes -54.8224
lfemur -200.688 130.404 -171.792
ltibia 52.2983
lfoot -14.6324 9.70342
ltoes 2.85374
726
root -0.514301 15.9283 -9.45487 187.306 174.346 179.658
lowerback -11.2298 11.3277 1.16832
upperback 0.653622 14.7647 2.51358
thorax 6.45828 7.23819 4.40764
lowerneck -12.2004 3.59517 -1.99786
upperneck 21.3982 6.5073 -3.92624
head 8.78025 2.55879 -0.258243
rclavicle 1.43858e-013 3.18055e-014
rhumerus -4.61012 10.7069 -98.6262
rradius 83.3642
rwrist -14.5466
rhand -31.4178 -2.25786
rfingers 7.12502
rthumb -4.68653 -32.186
lclavicle 1.43858e-013 3.18055e-014
lhumerus 51.1555 7.84754 40.8573
lradius 96.9171
lwrist 52.5598
lhand 6.27142 54.2737
lfingers 7.12502
lthumb 31.5819 81.5626
rfemur -30.8849 -3.05652 12.5577
rtibia 56.2059
rfoot -17.8386 -36.5585
rtoes -54.1199
lfemur -200.606 129.697 -172.783
ltibia 51.2492
lfoot -14.9035 10.0571
ltoes -0.683642
727
root -0.305402 16.0714 -9.47918 187.816 173.983 179.207
lowerback -12.1994 11.1876 1.14312
upperback 0.215069 14.5354 2.80892
thorax 6.44787 7.11865 4.82893
lowerneck -11.9497 3.79703 -1.83187
upperneck 21.1202 6.76469 -4.09632
head 8.65415 2.68924 -0.321508
rclavicle -6.79502e-014 1.59028e-015
rhumerus -3.84085 9.2686 -99.0125
rradius 79.5758
rwrist -11.9373
rhand -28.8705 -0.0145463
rfingers 7.12502
rthumb -2.22666 -29.9827
lclavicle -6.79502e-014 1.59028e-015
lhumerus 53.3644 6.48947 39.0771
lradius 95.503
lwrist 51.1389
lhand 7.84763 55.2584
lfingers 7.12502
lthumb 33.0821 82.2412
rfemur -29.8289 -2.40034 12.1943
rtibia 53.2967
rfoot -18.11 -35.7539
rtoes -52.5076
lfemur -199.754 129.394 -173.749
ltibia 48.9984
lfoot -15.1145 9.91307
ltoes -4.39569
728
root -0.0792721 16.2202 -9.51241 188.396 173.573 179.045
lowerback -13.1399 10.9732 0.908796
upperback -0.202747 14.2455 3.01383
thorax 6.42079 6.96687 5.24579
lowerneck -11.661 3.96608 -1.71931
upperneck 20.8675 6.98824 -4.26579
head 8.52899 2.80029 -0.380547
rclavicle -2.6339e-014 1.59028e-015
rhumerus -3.22134 8.02958 -99.1993
rradius 75.8835
rwrist -10.9444
rhand -26.6883 1.70775
rfingers 7.12502
rthumb -0.118996 -28.272
lclavicle -2.6339e-014 1.59028e-015
lhumerus 55.4639 5.26148 37.4651
lradius 93.8843
lwrist 49.9501
lhand 9.49648 56.5336
lfingers 7.12502
lthumb 34.6486 83.171
rfemur -28.7975 -1.53761 11.4308
rtibia 50.3465
rfoot -18.7359 -35.0951
rtoes -50.1011
lfemur -198.934 129.627 -175.302
ltibia 45.6337
lfoot -14.5622 10.0082
ltoes -11.4843
729
root 0.156329 16.3705 -9.5504 188.986 173.255 179.17
lowerback -14.0324 10.6928 0.372515
upperback -0.551418 13.9229 3.20008
thorax 6.37996 6.794 5.78423
lowerneck -11.308 4.11299 -1.71446
upperneck 20.4889 7.19671 -4.46686
head 8.34841 2.89833 -0.437151
rclavicle 1.23495e-014 2.22639e-014
rhumerus -2.58466 7.1358 -99.1591
rradius 72.6073
rwrist -11.5884
rhand -24.6785 2.17405
rfingers 7.12502
rthumb 1.82208 -27.7979
lclavicle 1.23495e-014 2.22639e-014
lhumerus 57.3831 4.24319 35.9961
lradius 92.0846
lwrist 49.1982
lhand 11.0594 58.2494
lfingers 7.12502
lthumb 36.1305 84.5337
rfemur -27.7261 -0.287338 10.3123
rtibia 47.3565
rfoot -17.7816 -35.0156
rtoes -48.5184
lfemur -198.03 129.974 -177.17
ltibia 42.1869
lfoot -14.362 9.74659
ltoes -14.7316
730
root 0.394104 16.5207 -9.59937 189.604 172.967 179.441
lowerback -14.8199 10.409 -0.482145
upperback -0.857562 13.6572 3.4609
thorax 6.23602 6.6493 6.55105
lowerneck -11.0297 4.21522 -1.77239
upperneck 20.0893 7.39763 -4.85568
head 8.18245 2.97062 -0.544676
rclavicle -5.76972e-014 -1.27222e-014
rhumerus -1.88563 6.508 -98.7572
rradius 69.4966
rwrist -12.0624
rhand -23.8903 2.80592
rfingers 7.12502
rthumb 2.58335 -27.1582
lclavicle -5.76972e-014 -1.27222e-014
lhumerus 59.302 3.2763 34.8023
lradius 90.0624
lwrist 48.4872
lhand 12.5187 60.3237
lfingers 7.12502
lthumb 37.5112 86.2543
rfemur -26.8293 1.28135 9.00338
rtibia 44.6376
rfoot -16.062 -35.2375
rtoes -46.9297
lfemur -197.811 130.288 -179.339
ltibia 39.7258
lfoot -14.5499 9.02379
ltoes -10.7442
731
root 0.633743 16.6663 -9.65801 190.274 172.652 179.472
lowerback -15.5238 10.2012 -1.00189
upperback -1.16909 13.4486 3.69963
thorax 6.12378 6.54285 7.12577
lowerneck -10.7676 4.30385 -1.84784
upperneck 19.5553 7.5614 -5.21874
head 7.9736 3.03193 -0.645353
rclavicle 1.23495e-013 -9.54166e-015
rhumerus -1.23391 5.63652 -98.3196
rradius 66.3875
rwrist -11.2335
rhand -23.0272 3.86748
rfingers 7.12502
rthumb 3.41687 -26.0849
lclavicle 1.23495e-013 -9.54166e-015
lhumerus 61.3129 2.48878 33.5678
lradius 87.838
lwrist 47.8012
lhand 13.9601 62.266
lfingers 7.12502
lthumb 38.8719 87.8226
rfemur -26.1976 3.25142 7.94236
rtibia 42.2179
rfoot -14.9786 -35.5555
rtoes -42.3209
lfemur -198.455 130.435 -181.432
ltibia 38.2255
lfoot -14.5979 8.30781
ltoes -9.05001
